<svg version="1.1" xmlns="http://www.w3.org/2000/svg" xmlns:xlink="http://www.w3.org/1999/xlink" x="0px" y="0px" viewBox="0 0 812.4 224.4" style="enable-background:new 0 0 812.4 224.4;" xml:space="preserve">
<g>
	<polygon style="fill:#FFFFFF;" points="343.4,162.7 348.8,155 351.8,157.2 347.1,162.7 343.4,162.7 		"/>
	<path style="fill:#FFFFFF;" d="M182.2,196.3c-6.5,0-11.6-3.1-12.5-8.8l6.5-1.5c0.4,3.4,2.9,5.2,6.2,5.2c2.6,0,4.6-1.1,4.6-3.7
		c0-2.8-3.4-3.8-7.1-4.9c-4.4-1.4-9.2-3-9.2-8.6c0-5.6,4.6-8.8,10.7-8.8c5.3,0,10.7,2.2,11.9,8l-6.1,1.5c-0.6-3-2.6-4.3-5.4-4.3
		c-2.5,0-4.7,1-4.7,3.5c0,2.3,3,3.1,6.4,4.1c4.6,1.4,10,3.1,10,9.2C193.5,193.6,188.1,196.3,182.2,196.3L182.2,196.3z"/>
	<path style="fill:#FFFFFF;" d="M212.7,165.2c-8.9,0-15.5,6-15.5,15.5c0,9.5,6.6,15.6,15.5,15.6c8.9,0,15.5-6.1,15.5-15.6
		C228.2,171.2,221.6,165.2,212.7,165.2z M212.7,190.5c-5.2,0-9.2-3.7-9.2-9.8c0-6.1,4-9.8,9.2-9.8s9.2,3.6,9.2,9.8
		C221.9,186.8,217.9,190.5,212.7,190.5z"/>
	<polygon style="fill:#FFFFFF;" points="240.2,190.3 249.7,190.3 249.7,195.9 233.9,195.9 233.9,165.6 240.2,165.6 240.2,190.3 		"/>
	<path style="fill:#FFFFFF;" d="M265.7,196.3c-6.6,0-11.8-3.4-11.8-11v-19.7h6.3v18.8c0,4.6,2.5,6.3,5.6,6.3c3.1,0,5.6-1.7,5.6-6.3v-18.8h6.3
		v19.7C277.6,192.9,272.4,196.3,265.7,196.3z"/>
	<path style="fill:#FFFFFF;" d="M298.2,196.3c-8.9,0-15.5-6.1-15.5-15.6s6.6-15.5,15.5-15.5c6.7,0,12.2,3.5,14.3,9.2l-5.9,2.1
		c-1.3-3.5-4.5-5.6-8.4-5.6c-5.2,0-9.2,3.6-9.2,9.8c0,6.1,4,9.8,9.2,9.8c3.9,0,7.1-2.1,8.4-5.6l5.9,2.1
		C310.4,192.8,305,196.3,298.2,196.3L298.2,196.3z"/>
	<rect x="317.7" y="165.6" style="fill:#FFFFFF;" width="6.3" height="30.3"/>
	<path style="fill:#FFFFFF;" d="M345.2,165.2c-8.9,0-15.5,6-15.5,15.5c0,9.5,6.6,15.6,15.5,15.6c8.9,0,15.5-6.1,15.5-15.6
		C360.7,171.2,354.1,165.2,345.2,165.2z M345.2,190.5c-5.2,0-9.2-3.7-9.2-9.8c0-6.1,4-9.8,9.2-9.8s9.2,3.6,9.2,9.8
		C354.4,186.8,350.4,190.5,345.2,190.5z"/>
	<polygon style="fill:#FFFFFF;" points="387.1,165.6 393.4,165.6 393.4,195.9 386.1,195.9 372.7,174.2 372.7,195.9 366.5,195.9 366.5,165.6 
		373.7,165.6 387.1,187.1 		"/>
	<polygon style="fill:#FFFFFF;" points="430.3,171.1 418.7,171.1 418.7,178 428.7,178 428.7,183.5 418.7,183.5 418.7,195.9 412.4,195.9 
		412.4,165.6 430.3,165.6 430.3,171.1 		"/>
	<rect x="435.6" y="165.6" style="fill:#FFFFFF;" width="6.3" height="30.3"/>
	<path style="fill:#FFFFFF;" d="M460.7,165.6h-11v30.3v0h11c9.7,0,14.4-6.1,14.4-15.2C475.1,171.7,470.3,165.6,460.7,165.6z M460.4,190.3H456
		v0v-19.2h4.4c5.6,0,8.1,3.5,8.1,9.6S465.9,190.3,460.4,190.3z"/>
	<path style="fill:#FFFFFF;" d="M492.2,196.3c-6.6,0-11.8-3.4-11.8-11v-19.7h6.3v18.8c0,4.6,2.5,6.3,5.6,6.3c3.1,0,5.6-1.7,5.6-6.3v-18.8h6.3
		v19.7C504.1,192.9,498.9,196.3,492.2,196.3L492.2,196.3z"/>
	<path style="fill:#FFFFFF;" d="M524.7,196.3c-8.9,0-15.5-6.1-15.5-15.6s6.6-15.5,15.5-15.5c6.7,0,12.2,3.5,14.3,9.2l-5.9,2.1
		c-1.3-3.5-4.5-5.6-8.4-5.6c-5.2,0-9.2,3.6-9.2,9.8c0,6.1,4,9.8,9.2,9.8c3.9,0,7.1-2.1,8.4-5.6l5.9,2.1
		C536.9,192.8,531.5,196.3,524.7,196.3L524.7,196.3z"/>
	<rect x="544.2" y="165.6" style="fill:#FFFFFF;" width="6.3" height="30.3"/>
	<path style="fill:#FFFFFF;" d="M573.8,165.6h-7.7L555,195.9h6.4l2.2-6.2h12.7l2.2,6.2h0h6.4L573.8,165.6z M565.5,184.4l4.5-12.8l4.5,12.8
		H565.5z"/>
	<path style="fill:#FFFFFF;" d="M613,195.9l-9.1-13.6c4.1-0.9,6.4-3.5,6.4-7.6c0-5-2.9-9.1-9.7-9.1h-11v30.3h6.3v-13.3h1.8l7.9,13.3l0,0H613z
		 M599.5,178h-3.7v-7.2v0h3.7c3.4,0,4.7,1.5,4.7,3.6C604.2,176.6,602.9,178,599.5,178z"/>
	<rect x="617.6" y="165.6" style="fill:#FFFFFF;" width="6.3" height="30.3"/>
	<path style="fill:#FFFFFF;" d="M647.2,165.6h-7.7l-11.1,30.3h6.4l2.2-6.2h12.7l2.2,6.2h0h6.4L647.2,165.6z M638.9,184.4l4.5-12.8l4.5,12.8
		H638.9z"/>
</g>
<g>
	<path style="fill:#FFFFFF;" d="M176.7,53.3c0-22.4,16.8-25.2,25.6-25.2c6.9,0,13.8,1.5,18.9,4.9l-7.4,15.1c-4-1.5-5.6-1.9-8.9-1.9
		c-6.3,0-6.1,5.7-6.1,7.1v2.2h15v18.1h-15v54.2h-22.1V73.6h-9.9V55.5h9.9C176.7,55.5,176.7,53.3,176.7,53.3z"/>
	<rect x="224" y="55.5" style="fill:#FFFFFF;" width="22" height="72.3"/>
	<path style="fill:#FFFFFF;" d="M312.1,29.6v32.7c-1-1.5-7.5-7.9-18.6-7.9c-16.5,0-35.6,12.4-35.6,37.2c0,25.8,19,37.7,35.6,37.7
		c11.1,0,17.6-6.1,18.6-8.6v7.2h22v-63V29.6H312.1z M296.7,109.9c-9.4,0-17.5-6.4-17.5-18.3c0-11.5,8.1-17.9,17.5-17.9
		c9,0,16.4,6.3,16.4,17.9C313.1,103.6,305.7,109.9,296.7,109.9z"/>
	<path style="fill:#FFFFFF;" d="M374.6,128.9c-13.5,0-27.2-9-27.2-32V55.5h22v39.9c0,11,3.8,14.5,10.7,14.5c9.9,0,15.6-9.6,17-13.8V55.5h22
		v72.3h-22v-12.5C395.6,118.8,388.2,128.9,374.6,128.9z"/>
	<path style="fill:#FFFFFF;" d="M468.7,54.3c13.2,0,24.3,5.6,31.1,17.2l-16.7,7.9c-3.6-3.1-6.5-5.8-14.2-5.8c-8.3,0-16.8,6.4-16.8,18.2
		c0,11.7,8.5,17.8,16.8,17.8c7.6,0,10.6-2.5,14.2-5.6l17,7.9c-7.1,11.7-17.9,17-31.4,17c-16.1,0-37.8-11.5-37.8-37.1
		C430.9,66.7,452.6,54.3,468.7,54.3L468.7,54.3z"/>
	<rect x="511.4" y="55.5" style="fill:#FFFFFF;" width="22" height="72.3"/>
	<path style="fill:#FFFFFF;" d="M599.5,55.5v6.7c-1-1.5-7.5-7.9-18.6-7.9c-16.5,0-35.6,12.4-35.6,37.2c0,25.8,19,37.7,35.6,37.7
		c11.1,0,17.6-6.1,18.6-8.6v7.2h22V55.5H599.5z M584,109.9c-9.4,0-17.5-6.4-17.5-18.3c0-11.5,8.1-17.9,17.5-17.9
		c9,0,16.4,6.3,16.4,17.9C600.4,103.6,593.1,109.9,584,109.9z"/>
	<rect x="635.6" y="29.6" style="fill:#0A78FF;" width="22" height="98.2"/>
	<polygon style="fill:#0A78FF;" points="730.4,55.3 752.2,55.3 708,154.2 686,154.2 699.4,125.3 668.1,55.3 689.9,55.3 710.2,101.7 		"/>
	<path style="fill:#0A78FF;" d="M791.5,78.3c-1.9-5-4.9-6.7-8.1-6.7c-2.9,0-5.8,1.7-5.8,4.4c0,2.6,1.7,4.2,4.9,5.3l9.2,3.2
		c10.3,3.8,20.7,7.5,20.7,22c0,14.6-14.6,22.9-29.6,22.9c-13.5,0-26.1-7.9-29.2-20.6l17.2-5.4c1.8,4,5,8.6,12,8.6
		c4.7,0,7.8-3.1,7.8-5.8c0-1.4-1.1-3.2-4.6-4.6l-8.5-3.1C763,93.3,756.2,86,756.2,75.7c0-13.5,12.5-21.4,26.3-21.4
		c14,0,23.3,7.6,27.5,19.2L791.5,78.3z"/>
</g>
<g>
	<path style="fill:#0A78FF;" d="M45.4,180.3c32.4-29.1,52.1-46.8,43.8-80.5c10.2,15.6,19.6,37.2,11.5,54.1c-7.2,15.1-14.4,25.6-40.7,40.3
		c-13.9,7.8-24.4,16.2-33.1,30.3C26.5,209.7,29.3,194.7,45.4,180.3z"/>
	<path style="fill:#0A78FF;" d="M9.5,130.2c12.4-22.8,30.5-39.1,48-62.5C69.9,51.1,81.3,23.6,69.4,1.1L70.1,0c18.2,20.4,19,53.6,13.3,78.2
		c-9,38.7-41,54.4-59.7,82.7c-7.3,11.1-11.4,24.7-9.4,38.9C-6.3,182.9-1.6,150.6,9.5,130.2z"/>
</g>
</svg>
