<svg version="1.1" id="Capa_1" xmlns="http://www.w3.org/2000/svg" xmlns:xlink="http://www.w3.org/1999/xlink" x="0px" y="0px" viewBox="0 0 853.8 198.1" style="enable-background:new 0 0 853.8 198.1;" xml:space="preserve">
<g>
	<g transform="matrix(2.25,0,0,2.25,-2.25,-9.0087890625)">
		<g transform="translate(0,-1020.3622)">
			<path style="fill:#FFFFFF;" d="M44.3,1025.4c-9.8,0-17.6,7.8-18.3,17.5c-2,0.5-3.8,1.2-5.5,2.3c-5,2.9-8.5,9.2-8.7,15.9
				c0,10.3,8.3,18.7,18.5,18.7h12.3v10.9c0,2-1.6,3.6-3.6,3.6H37c-0.8-3.1-3.6-5.4-7-5.4c-4,0-7.3,3.3-7.3,7.3c0,4,3.3,7.3,7.3,7.3
				c3.4,0,6.2-2.3,7-5.4h2.1c4,0,7.3-3.3,7.3-7.3V1058h-3.6v18.1H30.4c-8.2,0-14.9-6.7-14.9-15.1c0-5.4,2.9-10.3,7.2-12.9
				c0.2-0.1,0.5-0.3,0.8-0.4c0.5-0.3,0.9-0.5,1.4-0.7c0.3-0.1,0.5-0.2,0.8-0.3c0.6-0.2,1.2-0.4,1.9-0.5c0.9-0.2,1.9-0.3,2.8-0.3
				c4.3,0,8.2,1.8,10.9,4.8c1.6,1.9,4.4-0.7,2.7-2.5c-3.4-3.7-8.2-6-13.6-6c-0.3,0-0.5,0-0.8,0.1c0.9-7.5,7.1-13.3,14.7-13.3
				c7.1,0,13.3,5.1,14.6,12.3c0.2,1.3,1.7,1.9,2.7,1.2c2.3-1.4,5-2.2,7.7-2.2c8.2,0,14.9,6.7,14.9,15.1c0,1,0.8,1.8,1.8,1.8
				c5.2,0,9.3,4.2,9.3,9.5c0,5.3-4.2,9.5-9.3,9.5H68.1V1058h-3.6v32.6c0,4,3.3,7.3,7.3,7.3h2.1c0.8,3.1,3.6,5.4,7,5.4
				c4,0,7.3-3.3,7.3-7.3c0-4-3.3-7.3-7.3-7.3c-3.4,0-6.2,2.3-7,5.4h-2.1c-2,0-3.6-1.6-3.6-3.6v-10.9H86c7.1,0,12.9-5.9,12.9-13.1
				c0-6.7-5-12-11.4-12.8c-0.8-9.6-8.5-17.2-18.2-17.2c-2.7,0-5.1,1-7.5,2.1C59.5,1031,52.5,1025.4,44.3,1025.4z M50,1050.7v32.6
				h3.6v-32.6H50z M57.2,1050.7v32.6h3.6v-32.6H57.2z M50,1087v3.6h3.6v-3.6H50z M57.2,1087v3.6h3.6v-3.6H57.2z M30,1092.5
				c2,0,3.6,1.6,3.6,3.6s-1.6,3.6-3.6,3.6s-3.6-1.6-3.6-3.6S28,1092.5,30,1092.5z M80.8,1092.5c2,0,3.6,1.6,3.6,3.6
				s-1.6,3.6-3.6,3.6c-2,0-3.6-1.6-3.6-3.6S78.8,1092.5,80.8,1092.5z M1,1094.3v3.6h3.6v-3.6H1z M8.3,1094.3v3.6h3.6v-3.6H8.3z
				 M15.5,1094.3v3.6h3.6v-3.6H15.5z M50,1094.3v3.6h3.6v-3.6H50z M57.2,1094.3v3.6h3.6v-3.6H57.2z M91.7,1094.3v3.6h3.6v-3.6H91.7z
				 M98.9,1094.3v3.6h3.6v-3.6H98.9z M106.2,1094.3v3.6h3.6v-3.6H106.2z M50,1101.5v3.6h3.6v-3.6H50z M57.2,1101.5v3.6h3.6v-3.6
				H57.2z M50,1108.8v3.6h3.6v-3.6H50z M57.2,1108.8v3.6h3.6v-3.6H57.2z"/>
		</g>
	</g>
	
		<g transform="matrix(0.8552630720376395,0,0,0.8552630720376395,86.9736840688621,-7.031577583957715)">
		<path style="fill:#FFFFFF;" d="M236.2,42.8c0-19.1,15.5-34.6,34.6-34.6h9.9v21.2h-0.4c-5.7,0-11,2.3-14.7,6c-1.8,1.9-3,4.6-3,7.4h18v22.6
			h-18v72.8h-26.5V65.4h-10.8V42.8L236.2,42.8z M362.5,90.5V42.8H389v47.7c0,27.9-19.1,50.5-48.4,50.5c-29.3,0-48.4-22.6-48.4-50.5
			V42.8h26.5v47.7c0,14.7,7.2,26.5,21.9,26.5C355.3,117,362.5,105.2,362.5,90.5z M405.8,138.2V11h26.5v127.2H405.8z M449.9,138.2V11
			h26.5v127.2H449.9z M567.2,11h26.5v127.2H569v-11.3c-6.4,8.7-16.4,14.1-27.7,14.1c-29,0-52.5-22.6-52.5-50.5S512.3,40,541.1,40
			c10.1,0,19.1,3.7,26.1,9.7C567.2,49.7,567.2,11,567.2,11z M515.3,90.5c0,14.7,11.8,26.5,26.5,26.5s26.5-11.8,26.5-26.5
			S556.5,64,541.8,64S515.3,75.9,515.3,90.5z M658.5,40c29,0,52.5,22.6,52.5,50.5l0,0v47.7h-24.7v-11.8c-6,8.8-16.2,14.7-27.7,14.7
			c-29,0-52.5-22.6-52.5-50.5S629.6,40,658.5,40z M659.1,117c14.7,0,26.5-11.8,26.5-26.5S673.7,64,659.1,64s-26.5,11.8-26.5,26.5
			S644.4,117,659.1,117z M753.8,11v31.8h26.5v22.6h-26.5v25.1c0,14.7,11.8,26.5,26.5,26.5v24h-3.5c-29.3,0-49.5-22.6-49.5-50.5V11
			L753.8,11z M844.2,40c29,0,52.5,22.6,52.5,50.5l0,0v47.7h-24.7v-11.8c-6,8.8-16.2,14.7-27.7,14.7c-29,0-52.5-22.6-52.5-50.5
			S815.2,40,844.2,40z M844.7,117c14.7,0,26.5-11.8,26.5-26.5S859.4,64,844.7,64c-14.7,0-26.5,11.8-26.5,26.5S830.1,117,844.7,117z"
			/>
	</g>
	
		<g transform="matrix(1,0,0,1,132.5999994277954,29.1200008392334)">
		<path style="fill:#FFFFFF;" d="M577.2,146.8c0,4.2-3.4,7.5-7.5,7.5c-4.2,0-7.5-3.3-7.5-7.5c0-4.1,3.3-7.5,7.5-7.5
			C573.9,139.3,577.2,142.7,577.2,146.8z M608.4,104.8c14.2,0,25.8,11.1,25.8,24.8s-11.5,24.8-25.8,24.8c-4.9,0-9.5-2-12.8-5.2v19.4
			h-13v-39C582.6,115.9,594.2,104.8,608.4,104.8z M608.1,142.6c7.2,0,13-5.8,13-13c0-7.2-5.8-13-13-13c-7.2,0-13,5.8-13,13
			C595.1,136.8,600.9,142.6,608.1,142.6z M639.8,129.6c0-13.7,9.9-24.8,24.3-24.8h1.7v11.8c-7.2,0-13,5.8-13,13V153h-13V129.6z
			 M720.5,129.6c0,13.7-11.5,24.8-25.8,24.8s-25.8-11.1-25.8-24.8s11.5-24.8,25.8-24.8S720.5,115.9,720.5,129.6z M707.5,129.6
			c0-7.2-5.7-13-12.8-13c-7.1,0-12.8,5.8-12.8,13c0,7.2,5.7,13,12.8,13C701.8,142.6,707.5,136.8,707.5,129.6z"/>
	</g>
</g>
</svg>
