<?xml version="1.0" encoding="utf-8"?>
<!-- Generator: Adobe Illustrator 28.0.0, SVG Export Plug-In . SVG Version: 6.00 Build 0)  -->
<svg version="1.1" id="Capa_1" xmlns="http://www.w3.org/2000/svg" xmlns:xlink="http://www.w3.org/1999/xlink" x="0px" y="0px"
	 viewBox="0 0 296.5 147.7" style="enable-background:new 0 0 296.5 147.7;" xml:space="preserve">
<style type="text/css">
	.st0{fill:#FFFFFF;}
</style>
<g>
	<g>
		<path class="st0" d="M239.8,2.8v105.4h-22.9V2.8H239.8 M241.6,1.1h-26.4V110h26.4V1.1L241.6,1.1z"/>
	</g>
	<g>
		<g>
			<path class="st0" d="M28.1,110.9H0V0h16.5c6.4,0,11.7,5,11.7,11.1V110.9z M1.8,109.2h24.6v-98c0-5.2-4.4-9.4-9.9-9.4H1.8V109.2z"
				/>
		</g>
	</g>
	<g>
		<g>
			<path class="st0" d="M11.5,134.4c0,1.9-0.7,2.9-2.1,3.5c1.8,0.7,2.8,2,2.8,4.2c0,3.2-2.5,5.1-6,5.1H1V130h5.3
				C9.8,130,11.5,131.5,11.5,134.4z M2.9,137h3.4c2.1,0,3.3-0.8,3.3-2.6c0-1.8-1.2-2.5-3.3-2.5H2.9V137z M2.9,145.3h4
				c2,0,3.5-1.4,3.5-3.2s-1.5-3.2-3.5-3.2h-4V145.3z"/>
			<path class="st0" d="M19.7,130.4l1.9-0.6v10.3c0,2.5,0.6,5.8,4.8,5.8s4.6-3.4,4.6-5.8v-9.7l1.9-0.6v10.3c0,4-1.1,7.5-6.5,7.5
				s-6.7-3.5-6.7-7.5V130.4z"/>
			<path class="st0" d="M41.2,130.4l1.9-0.6v17.3h-1.9V130.4z"/>
			<path class="st0" d="M61.9,145.5l-0.6,1.7h-9.9v-16.8l1.9-0.6v15.7H61.9z"/>
			<path class="st0" d="M82.9,138.6c0.2,4.9-3.3,8.6-8.6,8.6H69V130h5.3C79.6,130,83.1,133.3,82.9,138.6z M70.8,145.5h3.4
				c4.2,0,6.9-3.5,6.7-6.9c0.2-3.9-2.5-6.9-6.7-6.9h-3.4V145.5z"/>
			<path class="st0" d="M90.5,130.4l1.9-0.6v17.3h-1.9V130.4z"/>
			<path class="st0" d="M102.5,134.3v12.8h-1.9v-17.4l12.6,13.2v-12.5l1.9-0.6v17.5L102.5,134.3z"/>
			<path class="st0" d="M131.6,147.5c-4.9,0-9-4-9-9s3.9-9,8.9-9c0,0,2.9-0.2,5.5,1.8v2.5c0,0-1.8-2.6-5.5-2.6c-3.9,0-7,3.3-7,7.2
				c0,3.9,3.1,7.2,7,7.2c2.2,0,3.8-1.1,4.6-1.8v-3.2h-4.5l0.6-1.7h5.8v5.5C135.3,147.7,131.6,147.5,131.6,147.5z"/>
			<path class="st0" d="M164.1,137.9l-0.6,1.7H157v7.6h-1.9v-17.1h10.5l-0.6,1.7h-8v6.1H164.1z"/>
			<path class="st0" d="M171.5,138.6c0-4.9,4-9,9-9c4.9,0,9,4,9,9s-4,9-9,9C175.6,147.5,171.5,143.5,171.5,138.6z M187.5,138.6
				c0-3.9-3.1-7.2-7-7.2c-3.9,0-7,3.3-7,7.2c0,3.9,3.1,7.2,7,7.2C184.4,145.8,187.5,142.5,187.5,138.6z"/>
			<path class="st0" d="M208.2,134.8c0,2.9-1.6,4.1-3.7,4.6l4.7,6.8l-1.4,1.2l-5.2-7.8c-0.1,0-0.3,0-0.4,0h-3.2v7.5H197V130h5
				C205.3,130,208.2,130.9,208.2,134.8z M198.9,137.9h3.2c2.3,0,4.2-0.7,4.2-3.1c0-2.4-1.9-3.1-4.2-3.1h-3.2V137.9z"/>
			<path class="st0" d="M214.6,130.4l1.9-0.6l4.2,12.5l4.9-12.7l5.1,12.7l4-12.5l1.9,0.6l-5.6,17l-5.4-12.8l-5.1,12.8L214.6,130.4z"
				/>
			<path class="st0" d="M253.2,143.3h-7.7l-1.6,3.8H242l7.3-17.4l7.3,17.4h-1.9L253.2,143.3z M249.3,134.2l-3.1,7.5h6.3L249.3,134.2
				z"/>
			<path class="st0" d="M274.7,134.8c0,2.9-1.6,4.1-3.7,4.6l4.7,6.8l-1.4,1.2l-5.2-7.8c-0.1,0-0.3,0-0.4,0h-3.2v7.5h-1.9V130h5
				C271.8,130,274.7,130.9,274.7,134.8z M265.4,137.9h3.2c2.3,0,4.2-0.7,4.2-3.1c0-2.4-1.9-3.1-4.2-3.1h-3.2V137.9z"/>
			<path class="st0" d="M296.4,138.6c0.2,4.9-3.3,8.6-8.6,8.6h-5.3V130h5.3C293.1,130,296.7,133.3,296.4,138.6z M284.4,145.5h3.4
				c4.2,0,6.9-3.5,6.7-6.9c0.2-3.9-2.5-6.9-6.7-6.9h-3.4V145.5z"/>
		</g>
	</g>
	<g>
		<path class="st0" d="M81.1,106.6l-54-69.1v47c0,4.8-4.1,8.7-9.2,8.7H7.6V0.9H18c2.9,0,5.6,1.3,7.4,3.5l57.1,73.1V9.7
			c0-4.8,4.1-8.7,9.2-8.7h10.3v109.2H88.4C85.5,110.2,82.8,108.8,81.1,106.6z"/>
	</g>
	<g>
		<path class="st0" d="M128.2,56V0.8h10.1c5.1,0,9.2,3.9,9.2,8.7V56c0,18.5,19.8,36.6,34,36.6c4.1,0,7.5,4.6,7.5,7.8v9.7h-5.4
			C153,110.2,128.2,85.9,128.2,56"/>
	</g>
	<g>
		<path class="st0" d="M241.9,54.7l54.5,55.5h-22.4c-2.5,0-5-1-6.7-2.8l-46-46.9c-3.3-3.4-3.3-8.6,0.1-12l45.2-45
			c1.7-1.7,4.1-2.7,6.6-2.7H296L241.9,54.7z"/>
	</g>
</g>
</svg>
