<?xml version="1.0" encoding="utf-8"?>
<!-- Generator: Adobe Illustrator 27.4.1, SVG Export Plug-In . SVG Version: 6.00 Build 0)  -->
<svg version="1.1" id="Capa_1" xmlns="http://www.w3.org/2000/svg" xmlns:xlink="http://www.w3.org/1999/xlink" x="0px" y="0px"
	 viewBox="0 0 575.3 87.4" style="enable-background:new 0 0 575.3 87.4;" xml:space="preserve">
<g>
	
		<g id="SvgjsG44224_00000015335400925250595450000005592953011505697689_" transform="matrix(1.4062441326922601,0,0,1.4062441326922601,87.00042467782967,0)">
		<g>
			<path style="fill:#FBB040;" d="M14.5,28V9.9c0-1.1-0.9-2-2-2h-24.1c-1.1,0-2,0.9-2,2V20h-22.1c-1.1,0-2,0.9-2,2v32.1h4V24h20.1
				v16.1h4V12h20.1V28L14.5,28L14.5,28z"/>
			<path style="fill:#FBB040;" d="M-22.3,61.6L5.2,36.1h25.3c0.6,0,1.2-0.3,1.6-0.7L54.6,7.7v4.4h4V2c0-1.1-0.9-2-2-2H46.5v4h5.8
				L29.5,32.1H4.4c-0.5,0-1,0.2-1.4,0.5l-27.5,25.5h-37.4v4h38.2C-23.1,62.2-22.7,62-22.3,61.6z"/>
		</g>
	</g>
	<g>
		
			<g id="SvgjsG6045_00000127010183396003380410000012353992909723712939_" transform="matrix(1.0879061316707148,0,0,1.0879061316707148,0.0004347159091663642,-12.918121707601323)">
			<path style="fill:#FFFFFF;" d="M202.4,31.2V36h-8.7v25.5h-5.6V36h-8.7v-4.9H202.4L202.4,31.2z M231.1,31.2V36h-15.2v7.6h14.5v5
				h-14.5v8h15.5v4.9h-21.1V31.2L231.1,31.2L231.1,31.2z M265.6,60.2c-2.6,1-5.6,1.5-8.9,1.5c-10.9,0-16.3-5.3-16.3-15.8
				c0-10,5.4-15,16.3-15c3.3,0,6.3,0.5,8.9,1.5v5.1c-2.6-1.1-5.4-1.7-8.5-1.7c-7.3,0-10.9,3.4-10.9,10.1c0,7.3,3.6,10.9,10.9,10.9
				c3,0,5.9-0.6,8.5-1.7V60.2L265.6,60.2z M275.7,61.5V31.2h5.6v12.5h15V31.2h5.6v30.3h-5.6V48.5h-15v12.9H275.7z M332.9,31.2V36
				h-14.3v7.6h13.6v5h-13.7v12.8H313V31.2L332.9,31.2L332.9,31.2z M348.1,31.2v30.3h-5.6V31.2H348.1z M359.2,61.5V31.2h5.6l16,22.1
				V31.2h5.4v30.3h-5.6l-16-22.6v22.6H359.2z M400.5,61.5h-5.8l12.9-30.3h6l13.2,30.3h-6l-3.5-8.3h-10.1l1.9-4.9h6.1l-4.8-11.4
				L400.5,61.5z M435.3,61.5V31.2h5.6l16,22.1V31.2h5.4v30.3h-5.6l-16-22.6v22.6H435.3z M497.7,60.2c-2.6,1-5.6,1.5-8.9,1.5
				c-10.9,0-16.3-5.3-16.3-15.8c0-10,5.4-15,16.3-15c3.3,0,6.3,0.5,8.9,1.5v5.1c-2.6-1.1-5.4-1.7-8.5-1.7c-7.3,0-10.9,3.4-10.9,10.1
				c0,7.3,3.6,10.9,10.9,10.9c3,0,5.9-0.6,8.5-1.7V60.2L497.7,60.2z M528.5,31.2V36h-15.2v7.6h14.5v5h-14.5v8h15.5v4.9h-21.1V31.2
				L528.5,31.2L528.5,31.2z"/>
		</g>
		
			<g id="SvgjsG6046_00000179646547382937048070000004150411951097743788_" transform="matrix(0.9196110127524183,0,0,0.9196110127524183,-1.3470463212813197,43.53989205066649)">
			<path style="fill:#FBB040;" d="M216.5,32.5v15.2h-2.8V32.5H216.5z M229.2,47.6V32.5h2.8l8,11.1V32.5h2.7v15.2h-2.8l-8-11.3v11.3
				C231.9,47.6,229.2,47.6,229.2,47.6z M269.9,32.5l-6.6,15.2h-3l-6.4-15.2h3.3l4.7,11.6l4.7-11.6H269.9L269.9,32.5z M291.4,32.5
				v2.4h-7.6v3.8h7.2v2.5h-7.3v4h7.8v2.4h-10.5V32.5L291.4,32.5L291.4,32.5z M303.5,47v-2.5c1.5,0.6,3.2,0.8,5.2,0.8
				c2.3,0,3.5-0.8,3.5-2.3c0-1.1-0.7-1.7-2.1-1.7h-2.4c-3.1,0-4.7-1.4-4.7-4.2c0-3.1,2.2-4.7,6.6-4.7c1.7,0,3.3,0.2,4.8,0.7v2.5
				c-1.5-0.6-3.1-0.8-4.8-0.8c-2.5,0-3.8,0.7-3.8,2.2c0,1.1,0.6,1.7,1.8,1.7h2.4c3.3,0,5,1.4,5,4.2c0,3.2-2.1,4.8-6.3,4.8
				C306.7,47.7,305,47.5,303.5,47L303.5,47z M336.8,32.5v2.4h-4.3v12.7h-2.8V34.9h-4.3v-2.4H336.8L336.8,32.5z M347.9,47.6V32.5h2.9
				L356,44l5-11.5h2.8v15.2h-2.6V37.1l-4.1,10.6h-2.4l-4.2-10.6v10.6H347.9L347.9,47.6z M386.9,32.5v2.4h-7.6v3.8h7.2v2.5h-7.3v4
				h7.8v2.4h-10.5V32.5L386.9,32.5L386.9,32.5z M399.2,47.6V32.5h2.8l8,11.1V32.5h2.7v15.2h-2.8l-8-11.3v11.3H399.2z M435.4,32.5
				v2.4H431v12.7h-2.8V34.9h-4.3v-2.4H435.4L435.4,32.5z M472.9,47c-1.3,0.5-2.8,0.7-4.5,0.7c-5.4,0-8.2-2.6-8.2-7.9
				c0-5,2.7-7.5,8.2-7.5c1.7,0,3.1,0.2,4.5,0.7v2.5c-1.3-0.6-2.7-0.8-4.2-0.8c-3.6,0-5.5,1.7-5.5,5c0,3.6,1.8,5.5,5.5,5.5
				c1.5,0,2.9-0.3,4.2-0.8V47L472.9,47z M492.2,45.3c3.1,0,4.6-1.8,4.6-5.3c0-3.5-1.5-5.2-4.6-5.2c-3.1,0-4.7,1.7-4.7,5.2
				C487.5,43.5,489.1,45.3,492.2,45.3z M484.6,40.1c0-5.1,2.5-7.7,7.6-7.7c5,0,7.5,2.6,7.5,7.7c0,5.1-2.5,7.7-7.5,7.7
				C487.4,47.7,484.8,45.2,484.6,40.1L484.6,40.1z M511.9,47.6V32.5h2.9L520,44l5-11.5h2.8v15.2h-2.6V37.1l-4.1,10.6h-2.4l-4.2-10.6
				v10.6H511.9L511.9,47.6z M540.5,47.6V32.5h6.8c3.1,0,4.6,1.4,4.6,4.3c0,3.1-2.1,5-6.4,5.6l-0.4-2.5c2.5-0.5,3.8-1.5,3.8-3
				c0-1.3-0.6-1.9-1.9-1.9h-3.8v12.7L540.5,47.6L540.5,47.6z M563.3,47.6h-2.9l6.4-15.2h3l6.6,15.2h-3l-1.7-4.1h-5l1-2.4h3.1
				l-2.4-5.7L563.3,47.6z M587.9,47.6V32.5h2.8l8,11.1V32.5h2.7v15.2h-2.8l-8-11.3v11.3H587.9z M612.8,32.5h3l4.3,7.3l4-7.3h2.9
				l-5.6,9.9v5.3h-2.8v-5.3L612.8,32.5z"/>
		</g>
	</g>
</g>
</svg>
