<svg version="1.1" xmlns="http://www.w3.org/2000/svg" xmlns:xlink="http://www.w3.org/1999/xlink" x="0px" y="0px" viewBox="0 0 773.7 137.3" style="enable-background:new 0 0 773.7 137.3;" xml:space="preserve">
<g>
	<g>
		<polygon style="fill:none;" points="128.5,90.3 137.3,90.3 132.9,73.1 		"/>
		<polygon style="fill:none;" points="109.1,71.9 98.4,79.3 98.4,126.1 107.3,126.1 122.7,65.5 111,74.3 		"/>
		<polygon style="fill:none;" points="66.5,93 66.5,93 66.5,102.8 66.5,102.8 86.1,102.8 86.1,93 86.1,93 		"/>
		<polygon style="fill:none;" points="66.5,110.2 66.5,110.2 66.5,120 66.5,120 86.1,120 86.1,110.2 86.1,110.2 		"/>
		<polygon style="fill:none;" points="14.8,110.2 14.8,120 14.8,120 34.5,120 34.5,110.2 14.8,110.2 		"/>
		<polygon style="fill:none;" points="14.8,93 14.8,102.8 14.8,102.8 34.5,102.8 34.5,93 14.8,93 		"/>
		<polygon style="fill:none;" points="66.5,75.7 66.5,85.6 66.5,85.6 86.1,85.6 86.1,85.6 86.1,75.7 86.1,75.7 		"/>
		<polygon style="fill:none;" points="66.5,58.5 66.5,68.4 66.5,68.4 86.1,68.4 86.1,68.4 86.1,58.5 86.1,58.5 		"/>
		<g>
			<polygon style="fill:none;" points="66.5,110.2 66.5,110.2 66.5,120 66.5,120 86.1,120 86.1,110.2 86.1,110.2 			"/>
			<polygon style="fill:none;" points="66.5,93 66.5,93 66.5,102.8 66.5,102.8 86.1,102.8 86.1,93 86.1,93 			"/>
			<polygon style="fill:none;" points="14.8,110.2 14.8,120 14.8,120 34.5,120 34.5,110.2 14.8,110.2 			"/>
			<polygon style="fill:none;" points="14.8,93 14.8,102.8 14.8,102.8 34.5,102.8 34.5,93 14.8,93 			"/>
			<polygon style="fill:none;" points="66.5,75.7 66.5,85.6 66.5,85.6 86.1,85.6 86.1,85.6 86.1,75.7 86.1,75.7 			"/>
			<polygon style="fill:none;" points="109.1,71.9 98.4,79.3 98.4,126.1 107.3,126.1 122.7,65.5 111,74.3 			"/>
			<polygon style="fill:none;" points="66.5,58.5 66.5,68.4 66.5,68.4 86.1,68.4 86.1,68.4 86.1,58.5 86.1,58.5 			"/>
			<path style="fill:#00B899;" d="M167.6,2.4c-4.1-4.1-12.4-2.5-16.5,1.6c-4.1,4.1-5.7,12.4-1.6,16.5c1.3,1.3,3.1,3,5.2,4.7l-50.6,37.8
				l1.7,2.3l-7.3,4.9V45.4H53v80.5h-7.6V88c0-0.8-0.4-1.6-1.1-2.1L24.2,71.5c-0.9-0.6-2.1-0.6-2.9,0L1.1,85.9C0.4,86.4,0,87.2,0,88
				V101v26.1v10.1h104.7h8.4h4l10.7-42.1h12l10.7,42.1H163l-22-86.8L164.5,33c6.5,4.8,13.6,9.3,19,11.3v93h6V45.4
				c0.8-0.1,1.5-0.4,2-0.9C197.4,38.6,176.1,10.9,167.6,2.4z M32.5,120H12.8l0,0v-9.8l0,0h19.7V120z M32.5,102.8H12.8l0,0V93l0,0
				h19.7V102.8z M86.1,120H66.5c0,0,0,0,0,0v-9.8l0,0h19.7l0,0V120z M86.1,102.8H66.5c0,0,0,0,0,0V93l0,0h19.7l0,0V102.8z
				 M86.1,85.6L86.1,85.6l-19.7,0c0,0,0,0,0,0v-9.8h19.7l0,0V85.6z M86.1,68.4C86.1,68.4,86.1,68.4,86.1,68.4l-19.7,0c0,0,0,0,0,0
				v-9.8h19.7c0,0,0,0,0,0V68.4z M107.3,126.1l-8.9,0V79.3l10.7-7.5l1.8,2.5l11.8-8.8L107.3,126.1z M128.5,90.3l5.3-17.2l5.3,17.2
				H128.5z"/>
		</g>
	</g>
	<g>
		
			<g id="SvgjsG7689_00000124850433796228349260000010287925337631035051_" transform="matrix(1.0113854944208363,0,0,1.0113854944208363,-1.2136633649308994,150.61434384637607)">
			<path style="fill:#FFFFFF;" d="M283.2-130.6L264-85h-7.9l-18.8-45.6h7.2l15.6,38.1l15.7-38.1H283.2z M307.5-125.8l-2.5-5.6h7.3L334.3-85
				h-7.5l-3-6.7h-13.9c-2.6,0-5,0.2-7,0.7c-1.8,0.4-3.4,1-4.6,1.8c-1.1,0.7-1.8,1.3-2.2,2L295-85h-7.2L307.5-125.8z M312.4-98.4h8.4
				l-10-19.3l-10.1,21.8c0.9-0.8,2.3-1.4,4.1-1.8C306.9-98.2,309.4-98.4,312.4-98.4z M383.4-124.7l-4.3,5c-1.7-1.7-3.7-3.1-6-4
				c-2.3-1-4.8-1.5-7.3-1.5c-3.3,0-6.4,0.8-9.1,2.3c-2.8,1.5-4.9,3.6-6.4,6.2c-1.6,2.7-2.4,5.8-2.4,9.1c0,3.2,0.9,6.1,2.6,8.8
				c1.6,2.5,3.8,4.5,6.6,6s5.7,2.2,8.9,2.2c2.9,0,5.7-0.6,8.2-1.9c2.5-1.3,4.6-3,6.3-5.3l4.1,5.6c-2.3,2.6-5.1,4.6-8.3,6.1
				c-3.2,1.4-6.7,2.2-10.3,2.2c-4.5,0-8.7-1.1-12.5-3.3c-3.7-2.1-6.6-5-8.7-8.7c-2.2-3.8-3.3-7.9-3.3-12.5c0-4.4,1.2-8.4,3.5-12
				c2.2-3.5,5.2-6.3,9-8.3c3.8-2.1,7.8-3.1,12.1-3.1c3.4,0,6.6,0.7,9.7,2C378.5-128.8,381.1-127,383.4-124.7z M410-125.8l-2.5-5.6
				h7.3L436.7-85h-7.5l-3-6.7h-13.9c-2.6,0-5,0.2-7,0.7c-1.8,0.4-3.4,1-4.6,1.8c-1.1,0.7-1.8,1.3-2.2,2l-1.2,2.1h-7.2L410-125.8z
				 M414.9-98.4h8.4l-10-19.3l-10.1,21.8c0.9-0.8,2.3-1.4,4.1-1.8C409.4-98.2,411.9-98.4,414.9-98.4z M503.8-116.4l-15.6,18.6
				l-15.5-18.6V-85h-6.5v-39.2l-5.3-6.4h8.6l18.6,22.4l18.9-22.4h8.6l-5.3,6.4V-85h-6.5L503.8-116.4L503.8-116.4z M546.5-84
				c-4.3,0-8-0.7-11-2.2s-5.4-3.6-7-6.4s-2.4-6.2-2.4-10.1v-27.9h6.6v27.9c0,3.9,1.2,6.9,3.6,9c2.4,2.1,5.8,3.1,10.3,3.1
				s7.9-1,10.3-3.1c2.4-2.1,3.6-5.1,3.6-9v-27.9h6.6v27.9c0,3.9-0.8,7.3-2.4,10.1c-1.6,2.8-4,5-7,6.4C554.5-84.7,550.8-84,546.5-84z
				 M588-103.3v11.6h28.1v6.7h-34.8v-45.6h32.1v6.7H588v13.8c1.3-0.7,2.7-1.2,4.2-1.5c1.1-0.2,2.6-0.3,4.4-0.3h10v6.8h-10
				c-1.7,0-3.1,0.1-4.4,0.3C590.7-104.5,589.3-104,588-103.3z M635-124v15.2c1.3-0.7,2.7-1.2,4.2-1.5c1.1-0.2,2.6-0.3,4.4-0.3h8.7
				c2.4,0,4.3-0.6,5.6-1.7c1.4-1.2,2.1-3,2.1-5.3c0-2.2-0.8-3.9-2.3-5c-1.3-0.9-3.1-1.4-5.5-1.4L635-124L635-124z M654.5-92.2
				l-5.6-11.7h-5.3c-1.7,0-3.1,0.1-4.4,0.3c-1.5,0.3-3,0.8-4.2,1.5V-85h-6.7v-45.6h24c2.8,0,5.3,0.5,7.5,1.6c2.2,1.1,3.8,2.6,5,4.5
				c1.3,2.1,1.9,4.5,1.9,7.3c0,3.4-0.9,6.2-2.8,8.4c-1.8,2.2-4.4,3.7-7.8,4.6l3.5,7.3c1,1.5,1.8,2.6,2.4,3.2c0.7,0.8,1.4,1.3,2,1.6
				c0.6,0.3,1.5,0.4,2.5,0.4h0.7l1.5-0.1v6.8c-2.4,0-4.1-0.1-5.3-0.2c-1.9-0.3-3.5-1-4.9-1.9C657-88.3,655.6-90,654.5-92.2
				L654.5-92.2z M715.1-123.9h-16.1V-85h-6.5v-38.9h-16.3v-6.7h38.8V-123.9z M739.5-125.8l-2.5-5.6h7.3L766.2-85h-7.5l-3-6.7h-13.9
				c-2.6,0-5,0.2-7,0.7c-1.8,0.4-3.4,1-4.6,1.8c-1.1,0.7-1.8,1.3-2.2,2l-1.2,2.1h-7.2L739.5-125.8z M744.3-98.4h8.4l-10-19.3
				l-10.1,21.8c0.9-0.8,2.3-1.4,4.1-1.8C738.9-98.2,741.4-98.4,744.3-98.4z"/>
		</g>
		
			<g id="SvgjsG7690_00000057109172633008959480000013536931658255717025_" transform="matrix(1.4772511801840729,0,0,1.4772511801840729,93.75004733315421,195.14555612999672)">
			<path style="fill:#00B899;" d="M104.6-55.8v11.2h-3.7v-25.2h3.7v10.4c0.9-0.5,2-0.7,3.2-0.7c0.5,0,1.5,0.1,3.3,0.3c2.4,0.3,4.1,0.4,4.9,0.4
				c1.3,0,2.4-0.2,3.4-0.6v-9.8h3.7v25.2h-3.7v-11.7c-1,0.4-2.1,0.6-3.4,0.6c-0.9,0-2.5-0.1-4.9-0.4c-1.7-0.2-2.8-0.3-3.3-0.3
				C106.5-56.4,105.5-56.2,104.6-55.8z M152.4-57.4c0-1.8-0.5-3.4-1.4-4.9c-0.9-1.4-2.1-2.5-3.6-3.3c-1.5-0.8-3.2-1.2-5-1.2
				c-1.8,0-3.5,0.4-5.1,1.3c-1.5,0.8-2.7,2-3.6,3.4c-0.9,1.5-1.3,3.2-1.3,5c0,1.8,0.5,3.4,1.4,4.9c0.9,1.4,2.1,2.5,3.6,3.3
				c1.5,0.8,3.2,1.2,4.9,1.2s3.4-0.4,4.9-1.3c1.5-0.9,2.7-2,3.6-3.5C151.9-54,152.4-55.6,152.4-57.4z M156-57.2
				c0,2.4-0.6,4.7-1.9,6.7c-1.2,2-2.9,3.5-5,4.7c-2.1,1.2-4.3,1.7-6.7,1.7c-2.5,0-4.8-0.6-6.9-1.8c-2.1-1.2-3.7-2.8-4.8-4.8
				c-1.2-2.1-1.8-4.4-1.8-6.9c0-2.4,0.6-4.6,1.9-6.7c1.2-1.9,2.9-3.5,5-4.6c2.1-1.1,4.3-1.7,6.7-1.7c2.5,0,4.7,0.6,6.8,1.8
				c2.1,1.2,3.7,2.8,4.9,4.8C155.4-61.9,156-59.6,156-57.2z M172.7-44c-2.4,0-4.4-0.4-6.1-1.2c-1.7-0.8-3-2-3.9-3.6
				s-1.3-3.4-1.3-5.6v-15.4h3.7v15.4c0,2.2,0.7,3.8,2,5s3.2,1.7,5.7,1.7c2.5,0,4.4-0.6,5.7-1.7c1.3-1.2,2-2.8,2-5v-15.4h3.7v15.4
				c0,2.2-0.4,4-1.3,5.6c-0.9,1.6-2.2,2.7-3.9,3.6C177.2-44.4,175.1-44,172.7-44z M210.8-52.3c0,1.6-0.5,3.1-1.5,4.4
				c-1,1.2-2.3,2.2-4,2.8c-1.7,0.7-3.6,1-5.8,1c-2,0-3.9-0.5-5.7-1.4c-1.8-0.9-3.4-2.2-4.7-3.8l2.6-2.5c2.2,2.6,4.8,4,7.7,4
				c1.3,0,2.5-0.2,3.6-0.5c1.2-0.4,2.1-0.9,2.8-1.5c0.7-0.7,1.1-1.6,1.1-2.6c0-1.2-0.4-2.1-1.1-2.7c-0.6-0.5-1.6-0.9-2.8-1
				c-0.7-0.1-1.9-0.1-3.6-0.1c-3,0-5.3-0.6-6.9-1.7c-1.6-1.1-2.4-2.7-2.4-4.9c0-1.4,0.4-2.6,1.2-3.9c0.8-1.2,1.9-2.2,3.3-2.9
				c1.4-0.8,3-1.2,4.8-1.2c2,0,3.8,0.3,5.4,0.9c1.7,0.7,3.3,1.7,4.8,3.1l-2.3,2.7c-1.4-1.1-2.6-1.9-3.8-2.3s-2.5-0.7-4.1-0.7
				c-0.9,0-1.8,0.2-2.6,0.6s-1.4,0.9-1.9,1.5c-0.5,0.6-0.7,1.3-0.7,2c0,1.9,1.8,2.9,5.4,2.9c2.9,0,5.1,0.3,6.8,0.9
				c1.6,0.6,2.7,1.4,3.4,2.6C210.5-55.3,210.8-54,210.8-52.3L210.8-52.3z M219.8-44.6h-3.6v-25.2h3.6V-44.6z M228-66.3l-2.9-3.6h4.8
				L246-50.6v-19.3h3.7v25.2h-3.7L231.6-62v17.4H228V-66.3z M278.8-66.6l-2.4,2.8c-0.9-0.9-2-1.7-3.3-2.2c-1.3-0.5-2.6-0.8-4.1-0.8
				c-1.8,0-3.5,0.4-5.1,1.3s-2.7,2-3.6,3.4c-0.9,1.5-1.3,3.2-1.3,5c0,1.8,0.5,3.4,1.4,4.9c0.9,1.4,2.1,2.5,3.6,3.3
				c1.5,0.8,3.2,1.2,4.9,1.2c1.2,0,2.4-0.2,3.6-0.6c1.1-0.4,2.2-1,3.1-1.8v-4.6h-3.2l-1.6-3.7h8.5v9.8c-1.3,1.4-2.8,2.6-4.6,3.4
				c-1.8,0.8-3.7,1.2-5.7,1.2c-2.5,0-4.8-0.6-6.9-1.8c-2.1-1.2-3.7-2.8-4.8-4.8c-1.2-2.1-1.8-4.4-1.8-6.9c0-2.4,0.6-4.6,1.9-6.7
				c1.2-1.9,2.9-3.5,5-4.6c2.1-1.1,4.3-1.7,6.7-1.7c1.9,0,3.7,0.4,5.3,1.1C276.1-68.8,277.6-67.9,278.8-66.6L278.8-66.6z"/>
		</g>
	</g>
</g>
</svg>
