<svg version="1.1" xmlns="http://www.w3.org/2000/svg" xmlns:xlink="http://www.w3.org/1999/xlink" x="0px" y="0px" viewBox="0 0 891.9 176" style="enable-background:new 0 0 891.9 176;" xml:space="preserve">
<g>
	<g transform="matrix(1,0,0,1,-9.589000701904297,-5.981999397277832)">
		<g>
			<path style="fill:#EA2088;" d="M106.6,37.8c-5.5,0-10,4.5-10,10s4.5,10,10,10c5.5,0,10-4.5,10-10C116.6,42.2,112.1,37.8,106.6,37.8z
				 M67.3,37.8c-5.5,0-10,4.5-10,10s4.5,10,10,10c5.5,0,10-4.5,10-10C77.2,42.2,72.8,37.8,67.3,37.8z M47.6,126.1
				c0,5.5,4.5,10,10,10h58.7c5.5,0,10-4.5,10-10V95.7H47.6V126.1z M26.3,35.1c-1.9-2-2.9-4.5-2.9-7.1c0-2.6,1-5.1,2.9-7.1
				c2-1.9,4.5-2.9,7.1-2.9c2.6,0,5.1,1,7.1,2.9l-2.3,1.7C51.5,12.2,68.5,6,86.9,6s35.4,6.3,48.9,16.8l-2.3-1.7
				c1.9-1.9,4.5-2.9,7.1-2.9c2.5,0,5.1,1,7,2.9c1.9,2,2.9,4.5,2.9,7.1c0,2.6-1,5.1-2.9,7.1l2.3,1.7c33.7,33.7-23.7,48.9-23.7,48.9
				H47.6C46,85.7-12.1,72.9,24,36.8L26.3,35.1z"/>
		</g>
		<path style="fill:#EA2088;" d="M33.8,103.2c0,6.7-5.4,12.1-12.1,12.1l0,0c-6.7,0-12.1-5.4-12.1-12.1l0,0C9.6,96.5,15,91,21.7,91l0,0
			C28.4,91,33.8,96.5,33.8,103.2L33.8,103.2z"/>
		<path style="fill:#EA2088;" d="M163.2,108c0,6.7-5.4,12.1-12.1,12.1l0,0c-6.7,0-12.1-5.4-12.1-12.1l0,0c0-6.7,5.4-12.1,12.1-12.1l0,0
			C157.7,95.8,163.2,101.3,163.2,108L163.2,108z"/>
		<path style="fill:#EA2088;" d="M108.6,182c-6.7,0-12.1-5.4-12.1-12.1l0,0c0-6.7,5.4-12.1,12.1-12.1l0,0c6.7,0,12.1,5.4,12.1,12.1l0,0
			C120.7,176.6,115.3,182,108.6,182L108.6,182z"/>
		<path style="fill:#EA2088;" d="M64.2,182c-6.7,0-12.1-5.4-12.1-12.1l0,0c0-6.7,5.4-12.1,12.1-12.1l0,0c6.7,0,12.1,5.4,12.1,12.1l0,0
			C76.3,176.6,70.9,182,64.2,182L64.2,182z"/>
	</g>
	
	<g transform="matrix(1.7,0,0,1.7,64.81000032424927,-7.961997795104979)">
		<path style="fill:#1D1855;" d="M108.4,20.4c6.3,0,11.6,2.6,14.8,8.2l-7.9,3.8c-1.7-1.5-3.1-2.8-6.8-2.8c-4,0-8,3-8,8.7c0,5.6,4,8.5,8,8.5
			c3.6,0,5-1.2,6.8-2.6l8.1,3.8c-3.4,5.6-8.5,8.1-15,8.1c-7.7,0-18-5.5-18-17.7C90.4,26.2,100.7,20.4,108.4,20.4z M147.9,20.4
			c0.9,0,1.9,0,2.7,0.2v10c-0.8-0.2-1.7-0.2-2.4-0.2c-6.4,0-11.5,4.6-12,10.9v14h-10.5V21h10.5v8.4
			C137.8,24.2,141.8,20.4,147.9,20.4z M170.1,20.4c7.8,0,18.1,5.9,18.1,17.9c0,12.1-10.3,17.7-18.1,17.7c-7.8,0-18.1-5.6-18.1-17.7
			C152,26.2,162.3,20.4,170.1,20.4z M170.1,29.6c-4,0-8,3-8,8.7c0,5.5,4,8.5,8,8.5c4,0,8.1-3,8.1-8.5
			C178.2,32.6,174.1,29.6,170.1,29.6z M237,20.8h10.4l-12.3,34.5H225l-7.5-21.5L210,55.4h-10.1l-12.3-34.5H198l7.1,22.1l7.9-22.1
			h9.1l7.9,22.1L237,20.8z M272.5,8.6H283v16.8v30h-10.5v-3.4c-0.5,1.2-3.6,4.1-8.9,4.1c-7.9,0-16.9-5.6-16.9-17.9
			c0-11.8,9.1-17.7,16.9-17.7c5.3,0,8.4,3,8.9,3.8C272.5,24.1,272.5,8.6,272.5,8.6z M265.2,46.8c4.3,0,7.8-3,7.8-8.7
			c0-5.6-3.5-8.5-7.8-8.5c-4.5,0-8.3,3-8.3,8.5C256.9,43.8,260.7,46.8,265.2,46.8z M303.9,20.4c7.8,0,18.7,5.9,16.5,21.4h-24
			c1.2,3.6,4.3,5.4,8.5,5.4c4.2,0,5.6-0.9,7.9-1.9l5.8,5.6c-3,3-7.1,5.2-14.1,5.2c-8.5,0-18.7-5.9-18.7-17.7
			C285.8,26.2,296.1,20.4,303.9,20.4L303.9,20.4z M303.9,29.3c-3,0-6,1.7-7.3,5.2h14.6C310.2,31,306.9,29.3,303.9,29.3z M361.9,20.8
			l-15.4,34.5h-9.2l-15.4-34.5h10.4l9.7,22.1l9.6-22.1L361.9,20.8L361.9,20.8z M402.4,55.4l-7.1-10.1l-7.1,10.1h-12l13-17.7
			L377.5,21h11.8l5.9,9.2l6-9.2h11.8l-11.8,16.7l13.1,17.7H402.4z M442.5,20.8h10.4l-21,47.1h-10.5l6.4-13.8l-14.9-33.4h10.4
			l9.7,22.1L442.5,20.8z M486.6,21L470,46.2h15.4v9.1h-32.1l16.5-25.3h-15V21H486.6z"/>
	</g>
	
	<g transform="matrix(0.6,0,0,0.6,64.7880000114441,31.84400043487549)">
		<path style="fill:#7D7D8A;" d="M271.4,178.2h-10.3v18.9H256v-48.2h16.1c11.8-0.1,16.9,7,16.9,14.5c0,4.2-1.6,7.8-4.4,10.5
			C281.8,176.6,277.1,178.2,271.4,178.2z M271.8,153.6h-10.7v19.9h10.4c4.3,0,7.7-1.3,9.6-3.2c1.9-1.9,2.8-4.3,2.8-6.8
			C284,158.8,281.3,153.6,271.8,153.6z M351.1,172.9c0,4.6-1.1,8.7-3.1,12.5c-2.1,3.8-5,6.8-8.7,8.9c-3.8,2.2-7.9,3.3-12.5,3.3
			c-3.4,0-6.6-0.7-9.6-1.9c-3-1.3-5.6-3-7.7-5.2c-2.1-2.1-3.8-4.7-5-7.7c-1.2-3-1.9-6.2-1.9-9.6c0-4.6,1.1-8.7,3.2-12.5
			c2.1-3.8,5-6.8,8.7-9c3.7-2.2,7.9-3.2,12.4-3.2c3.4,0,6.6,0.6,9.6,1.9c3,1.3,5.6,3,7.7,5.2c2.1,2.3,3.8,4.8,5,7.8
			C350.5,166.2,351.1,169.4,351.1,172.9z M345.9,173.1c0-5.4-2-10.5-5.3-14.1c-3.3-3.6-8.3-6-13.8-6c-3.6,0-6.8,0.9-9.7,2.6
			c-2.9,1.9-5.2,4.2-6.8,7.2c-1.6,3-2.4,6.4-2.4,9.9c0,5.4,2,10.5,5.3,14c3.3,3.6,8.3,6,13.8,6c3.6,0,6.8-0.9,9.7-2.7
			c3-1.7,5.2-4.2,6.8-7.1C345.1,180,345.9,176.7,345.9,173.1z M384.8,197.1h-5.6l-15.1-48.2h5.3l12.6,41h0.1l12.7-41h5.8l12.8,41.2
			h0.1l12.7-41.2h5.1l-15.2,48.2h-5.6l-12.8-41.4L384.8,197.1z M447.7,197.1v-48.2h30.2v4.7h-25.1v16.7h23v4.7h-23v17.5h25.3v4.7
			H447.7z M532,197.1h-6.2l-14.3-19.5h-9.8v19.5h-5.1v-48.2h16.7c5.7,0,10.3,1.6,12.9,4.2c2.6,2.6,4,6,4,9.9
			c0,8.1-6.1,12.8-13.2,13.8L532,197.1z M501.7,153.6v19.3h11.2c4.2,0,7.5-1.2,9.5-3.1c1.9-1.9,2.8-4.2,2.8-6.8
			c0-4.8-2.9-9.5-12.1-9.5C513,153.6,501.7,153.6,501.7,153.6z M590.3,171.9l15.4-23.1h5.8l-18.7,27.9v20.4h-5.2v-20.3L569,148.8
			h6.1L590.3,171.9z M672.9,172.9c0,4.6-1.1,8.7-3.1,12.5c-2.1,3.8-5,6.8-8.7,8.9c-3.8,2.2-7.9,3.3-12.5,3.3c-3.4,0-6.6-0.7-9.6-1.9
			c-3-1.3-5.6-3-7.7-5.2c-2.1-2.1-3.8-4.7-5-7.7c-1.2-3-1.9-6.2-1.9-9.6c0-4.6,1.1-8.7,3.2-12.5c2.1-3.8,5-6.8,8.7-9
			c3.7-2.2,7.9-3.2,12.4-3.2c3.4,0,6.6,0.6,9.6,1.9c3,1.3,5.6,3,7.7,5.2c2.1,2.3,3.8,4.8,5,7.8C672.3,166.2,672.9,169.4,672.9,172.9
			z M667.7,173.1c0-5.4-2-10.5-5.3-14.1c-3.3-3.6-8.3-6-13.8-6c-3.6,0-6.8,0.9-9.7,2.6c-2.9,1.9-5.2,4.2-6.8,7.2
			c-1.6,3-2.4,6.4-2.4,9.9c0,5.4,2,10.5,5.3,14c3.3,3.6,8.3,6,13.8,6c3.6,0,6.8-0.9,9.7-2.7c3-1.7,5.2-4.2,6.8-7.1
			C666.9,180,667.7,176.7,667.7,173.1z M721.5,148.8h5.1v29.4c0,6.1-1.7,10.9-4.8,14.2c-3.2,3.4-7.7,5.1-13.4,5.1
			c-5.7,0-10.2-1.7-13.3-5.2c-3.2-3.4-4.8-8-4.8-13.8v-29.7h5v29.5c0,5.1,1.5,9,3.8,11.2c2.4,2.3,5.6,3.3,9.5,3.3
			c4.1,0,7.3-1.2,9.5-3.7c2.2-2.5,3.3-6,3.3-10.5V148.8z M782.6,197.1h-6.2l-14.3-19.5h-9.8v19.5h-5.1v-48.2H764
			c5.7,0,10.3,1.6,12.9,4.2c2.6,2.6,4,6,4,9.9c0,8.1-6.1,12.8-13.2,13.8L782.6,197.1z M752.3,153.6v19.3h11.2c4.2,0,7.5-1.2,9.5-3.1
			c1.9-1.9,2.8-4.2,2.8-6.8c0-4.8-2.9-9.5-12.1-9.5H752.3z M842.7,197.1h-18v-48.2h17.3c8.7-0.1,15.6,4.4,15.6,12.1
			c0,1.1-0.1,2.1-0.7,4c-0.3,0.9-0.7,1.7-1.2,2.5c-1,1.6-3,3.4-5.5,4.6c3.4,0.9,6.1,2.9,7.5,5.2s2,4.6,2,6.6c0,4.5-1.9,8-5.1,10.1
			C851.5,196,847.4,197.1,842.7,197.1z M841.7,153.5h-11.9v16.8h11.5c3.8,0,6.6-0.8,8.4-2.4c1.9-1.7,2.8-3.7,2.8-6.3
			C852.5,155.6,847.2,153.5,841.7,153.5z M841.9,174.8h-12.1v17.7h13.1c5.2,0,11.7-2.1,11.7-8.9c0-4.2-2.6-6.5-5.8-7.6
			C846.5,175,844.3,174.8,841.9,174.8z M908.4,148.8h5.1v29.4c0,6.1-1.7,10.9-4.8,14.2c-3.2,3.4-7.7,5.1-13.4,5.1
			c-5.7,0-10.2-1.7-13.3-5.2c-3.2-3.4-4.8-8-4.8-13.8v-29.7h5v29.5c0,5.1,1.5,9,3.8,11.2c2.4,2.3,5.6,3.3,9.5,3.3
			c4.1,0,7.3-1.2,9.5-3.7c2.2-2.5,3.3-6,3.3-10.5V148.8z M947.6,197.5c-4.6,0-8.9-1.7-11.8-4.2c-3-2.6-4.9-6-5.3-9.4l4.8-1.3
			c0.5,2.8,2,5.2,4.4,7.2c2.3,2,5,3,7.9,3c2.8,0,5.4-0.7,7.4-2.1c2.1-1.4,3.4-3.8,3.4-6.7c0-3.4-1.8-5.6-4-6.9
			c-1.6-0.9-3-1.3-4.6-1.7l-6.4-1.3c-1.3-0.3-2.7-0.7-4.2-1.4c-1.5-0.7-2.8-1.6-4-2.7c-2.3-2.2-3.4-5-3.4-8.3c0-2.6,0.7-5,2.2-7.1
			c1.5-2.1,3.3-3.6,5.6-4.8c2.3-1.1,4.8-1.6,7.5-1.6c10.4,0,15,6.4,16,11.6l-4.6,1.5c-0.8-3.4-3.9-8.3-11.4-8.3
			c-5.2-0.1-10.2,3.5-10.1,8.5c0,3.7,2.3,6.7,7,7.6l6.1,1.2c4.1,0.8,7.3,2.2,9.4,4.2c1.5,1.3,2.5,2.8,3.2,4.4c0.7,1.7,1,3.1,1,4.4
			C963.7,191.9,956.5,197.7,947.6,197.5z M981.7,197.1v-48.2h5.1v48.2H981.7z M1042.5,148.8h5v48.2h-5.5l-28.8-41v41h-5v-48.2h5.9
			l28.5,40.6V148.8z M1068.9,197.1v-48.2h30.2v4.7H1074v16.7h23v4.7h-23v17.5h25.3v4.7H1068.9z M1131.1,197.5
			c-4.6,0-8.9-1.7-11.8-4.2c-3-2.6-4.9-6-5.3-9.4l4.8-1.3c0.5,2.8,2,5.2,4.4,7.2c2.3,2,5,3,7.9,3c2.8,0,5.4-0.7,7.4-2.1
			c2.1-1.4,3.4-3.8,3.4-6.7c0-3.4-1.8-5.6-4-6.9c-1.6-0.9-3-1.3-4.6-1.7l-6.4-1.3c-1.3-0.3-2.7-0.7-4.2-1.4c-1.5-0.7-2.8-1.6-4-2.7
			c-2.3-2.2-3.4-5-3.4-8.3c0-2.6,0.7-5,2.2-7.1c1.5-2.1,3.3-3.6,5.6-4.8c2.3-1.1,4.8-1.6,7.5-1.6c10.4,0,15,6.4,16,11.6l-4.6,1.5
			c-0.8-3.4-3.9-8.3-11.4-8.3c-5.2-0.1-10.2,3.5-10.1,8.5c0,3.7,2.3,6.7,7,7.6l6.1,1.2c4.1,0.8,7.3,2.2,9.4,4.2
			c1.5,1.3,2.5,2.8,3.2,4.4c0.7,1.7,1,3.1,1,4.4C1147.2,191.9,1140,197.7,1131.1,197.5L1131.1,197.5z M1178.6,197.5
			c-4.6,0-8.9-1.7-11.8-4.2c-3-2.6-4.9-6-5.3-9.4l4.8-1.3c0.5,2.8,2,5.2,4.4,7.2c2.3,2,5,3,7.9,3c2.8,0,5.4-0.7,7.4-2.1
			c2.1-1.4,3.4-3.8,3.4-6.7c0-3.4-1.8-5.6-4-6.9c-1.6-0.9-3-1.3-4.6-1.7l-6.4-1.3c-1.3-0.3-2.7-0.7-4.2-1.4c-1.5-0.7-2.8-1.6-4-2.7
			c-2.3-2.2-3.4-5-3.4-8.3c0-2.6,0.7-5,2.2-7.1c1.5-2.1,3.3-3.6,5.6-4.8c2.3-1.1,4.8-1.6,7.5-1.6c10.4,0,15,6.4,16,11.6l-4.6,1.5
			c-0.8-3.4-3.9-8.3-11.4-8.3c-5.2-0.1-10.2,3.5-10.1,8.5c0,3.7,2.3,6.7,7,7.6l6.1,1.2c4.1,0.8,7.3,2.2,9.4,4.2
			c1.5,1.3,2.5,2.8,3.2,4.4c0.7,1.7,1,3.1,1,4.4C1194.7,191.9,1187.5,197.7,1178.6,197.5L1178.6,197.5z"/>
	</g>
	<path style="fill:#EA2088;" d="M683.8,86.7c-5.4,0-10-4.6-10-10c0-5.5,4.6-10.1,10-10.1c5.5,0,10.1,4.6,10.1,10.1
		C693.9,82.1,689.3,86.7,683.8,86.7z"/>
</g>
</svg>
